<svg xmlns="http://www.w3.org/2000/svg" xmlns:xlink="http://www.w3.org/1999/xlink" width="24" height="25" viewBox="0 0 24 25">
    <defs>
        <path id="cvki50hhka" d="M0 0L24 0 24 24 0 24z"/>
    </defs>
    <g fill="none" fill-rule="evenodd">
        <g>
            <g transform="translate(-245 -276) translate(245 276)">
                <mask id="aqtg73nlnb" fill="#fff">
                    <use xlink:href="#cvki50hhka"/>
                </mask>
                <path fill="#C9CDD2" d="M18.732 3.5H5.267c-.34 0-.617.276-.617.617v16.029c0 .422.233.804.609.996.375.194.821.162 1.165-.086L12 17.06l.169.123 5.406 3.873c.342.246.798.278 1.164.087.376-.193.61-.575.61-.997V4.117c0-.341-.277-.617-.617-.617" mask="url(#aqtg73nlnb)"/>
            </g>
        </g>
    </g>
</svg>
