<svg width="24" height="24" viewBox="0 0 24 24" fill="none" xmlns="http://www.w3.org/2000/svg">
<mask id="mask0" mask-type="alpha" maskUnits="userSpaceOnUse" x="0" y="0" width="24" height="24">
<path fill-rule="evenodd" clip-rule="evenodd" d="M0 0H24V24H0V0Z" fill="white"/>
</mask>
<g mask="url(#mask0)">
<path fill-rule="evenodd" clip-rule="evenodd" d="M19.3489 20.146V4.117C19.3489 3.777 19.0729 3.5 18.7319 3.5H5.2669C4.9269 3.5 4.6499 3.777 4.6499 4.117V20.146C4.6499 20.569 4.8839 20.95 5.2599 21.142C5.6339 21.336 6.0799 21.304 6.4239 21.056L11.9999 17.06L12.1689 17.183L17.5749 21.056C17.9169 21.302 18.3729 21.334 18.7389 21.143C19.1149 20.95 19.3489 20.569 19.3489 20.146V20.146Z" fill="#246FF8"/>
</g>
</svg>
