<?xml version="1.0" ?><!DOCTYPE svg  PUBLIC '-//W3C//DTD SVG 1.0//EN'
        'http://www.w3.org/TR/2001/REC-SVG-20010904/DTD/svg10.dtd'>
<svg xmlns="http://www.w3.org/2000/svg" xmlns:xlink="http://www.w3.org/1999/xlink" version="1.0" id="Layer_1" fill="#fff"
     width="100px" height="100px" viewBox="0 0 100 100" enable-background="new 0 0 100 100" xml:space="preserve"><path d="M16.667,63.333l-3.685-1.842C11.341,60.671,10,58.499,10,56.667V50c0-1.833,1.342-4.004,2.982-4.824l3.685-1.843V63.333z"/>
    <path d="M83.334,63.333l3.686-1.842c1.641-0.82,2.98-2.992,2.98-4.824V50c0-1.833-1.34-4.004-2.98-4.824l-3.686-1.843V63.333z"/>
    <path d="M50,10C31.59,10,16.667,24.923,16.667,43.333v20h5v-20C21.667,27.71,34.376,15,50,15c15.624,0,28.334,12.71,28.334,28.333  V70c0,8.284-6.715,15-15,15h-10v-5h-6.667v10h16.667c11.045,0,20-8.955,20-20V43.333C83.334,24.923,68.408,10,50,10z"/>
    <path d="M63.334,35H36.667c-5.521,0-10,4.478-10,10v13.333C26.667,67.532,34.134,75,43.333,75h13.334  c9.199,0,16.666-7.468,16.666-16.667V45C73.334,39.478,68.855,35,63.334,35z M66.668,58.333c0,5.515-4.486,10-10,10H43.333  c-5.515,0-10-4.485-10-10V45c0-1.837,1.496-3.333,3.333-3.333h26.667c1.84,0,3.334,1.496,3.334,3.333V58.333z"/>
    <polygon points="56.668,60 56.668,63.333 51.668,65 48.333,65 43.333,63.333 43.333,60 "/>
    <path d="M55.834,24.167C55.834,21.865,53.223,20,50,20c-3.223,0-5.833,1.865-5.833,4.167c0,1.66,1.367,3.08,3.333,3.752V35h5v-7.083  C54.467,27.246,55.834,25.825,55.834,24.167z"/>
    <path d="M58.334,52.5c0,1.384-1.119,2.5-2.5,2.5s-2.5-1.116-2.5-2.5v-3.333c0-1.385,1.119-2.502,2.5-2.502s2.5,1.117,2.5,2.502V52.5  z"/>
    <path d="M46.667,52.5c0,1.384-1.12,2.5-2.5,2.5s-2.5-1.116-2.5-2.5v-3.333c0-1.385,1.12-2.502,2.5-2.502s2.5,1.117,2.5,2.502V52.5z"/></svg>