<svg width="72" height="18" viewBox="0 0 72 18" fill="none" xmlns="http://www.w3.org/2000/svg">
<g clip-path="url(#clip0_2366_19693)">
<g clip-path="url(#clip1_2366_19693)">
<path d="M9 1.5L10.4553 2.62397L12.2541 2.24273L13.0776 3.88682L14.8637 4.32383L14.8923 6.1624L16.312 7.33109L15.54 9L16.312 10.6689L14.8923 11.8376L14.8637 13.6762L13.0776 14.1132L12.2541 15.7573L10.4553 15.376L9 16.5L7.54471 15.376L5.74587 15.7573L4.92238 14.1132L3.13626 13.6762L3.10766 11.8376L1.68804 10.6689L2.46 9L1.68804 7.33109L3.10766 6.1624L3.13626 4.32383L4.92238 3.88682L5.74587 2.24273L7.54471 2.62397L9 1.5Z" fill="url(#paint0_linear_2366_19693)"/>
<path d="M6.77311 11.6634L11.6037 6.21547" stroke="white" stroke-linecap="round"/>
<circle cx="7.52199" cy="7.0182" r="0.924594" transform="rotate(15 7.52199 7.0182)" stroke="white"/>
<circle cx="10.855" cy="10.8615" r="0.924594" transform="rotate(15 10.855 10.8615)" stroke="white"/>
</g>
<g clip-path="url(#clip2_2366_19693)">
<path d="M28.6925 5.44115H21L21.1772 4.05121H24.0841L24.2141 3H26.1047L25.9747 4.05121H28.8816L28.7044 5.44115H28.6925ZM24.2968 9.96137C22.3707 9.96137 21.1891 9.14376 21.3545 7.85894C21.5199 6.57412 22.8906 5.74483 24.8167 5.74483C26.7428 5.74483 27.9245 6.56244 27.759 7.85894C27.5936 9.15544 26.2347 9.96137 24.2968 9.96137ZM23.4224 14.5517H30.5359L30.3705 15.8949H21.3899L21.8035 12.5777H28.5626L28.6453 11.9003H21.8744L22.0399 10.5571H30.6541L30.2523 13.8392H23.5051L23.4224 14.5517ZM24.4622 8.65319C25.3248 8.65319 25.9157 8.38455 25.9747 7.85894C26.0338 7.33333 25.5257 7.04133 24.6631 7.04133C23.8005 7.04133 23.2097 7.30997 23.1506 7.85894C23.0915 8.40791 23.5996 8.65319 24.4741 8.65319H24.4622ZM32.9701 5.8266L32.781 7.34501H31.0558L30.725 10.0665H28.858L29.7088 3.08176H31.5758L31.2331 5.8266H32.9583H32.9701Z" fill="#009CEB"/>
<path d="M37.1508 10.4635C35.1538 10.4635 33.7595 9.07357 33.9958 7.20475C34.2321 5.33593 35.9574 3.92263 37.9543 3.92263C39.9513 3.92263 41.322 5.30089 41.0975 7.20475C40.873 9.10861 39.1478 10.4635 37.1508 10.4635ZM37.3517 8.86333C38.3325 8.86333 39.1478 8.2326 39.2778 7.19307C39.4078 6.15354 38.7461 5.51113 37.7653 5.51113C36.7845 5.51113 35.9574 6.13018 35.8274 7.19307C35.6974 8.25596 36.3828 8.86333 37.3517 8.86333ZM44.1107 14.2946L43.9335 15.7663H34.9175L35.4492 11.4563H37.3163L36.9618 14.2946H44.0989H44.1107ZM44.028 12.3674H42.1492L43.2836 3.1167H45.1624L44.0162 12.3791L44.028 12.3674Z" fill="#009CEB"/>
<path d="M58.085 8.87515L57.9077 10.3352H46.1621L46.3394 8.87515H50.6878L50.9714 6.62089H52.8384L52.5548 8.87515H58.085ZM56.1825 13.5823C55.9934 15.0773 54.0673 16 51.2432 16C48.4191 16 46.7411 15.0773 46.9184 13.5823C47.0956 12.0872 49.0335 11.1411 51.834 11.1411C54.6345 11.1411 56.3597 12.0638 56.1707 13.5823H56.1825ZM54.5873 8.01082C55.0245 6.86617 55.1781 5.99016 55.2844 5.13751H48.1118L48.2891 3.67749H57.3287L57.1987 4.74038C57.0687 5.76824 56.9388 6.85449 56.407 8.18603L54.5873 7.99914V8.01082ZM54.3273 13.5823C54.41 12.8814 53.4529 12.531 51.6804 12.531C49.9079 12.531 48.8681 12.8814 48.7854 13.5823C48.7027 14.2831 49.6598 14.6218 51.4204 14.6218C53.1811 14.6218 54.2446 14.2714 54.3273 13.5823Z" fill="#009CEB"/>
<path d="M66.6239 4.06279C66.1867 7.56683 63.7052 9.98462 59.6876 11.0942L59.085 9.62254C62.0864 8.83997 63.8943 7.34491 64.4142 5.53449H60.1603L60.3375 4.06279H66.6121H66.6239ZM62.3227 14.3063H69.318L69.1408 15.778H60.2666L60.8102 11.4096H62.6772L62.3227 14.3063ZM71.5514 6.7025L71.3623 8.22092H69.6135L69.1054 12.344H67.2383L68.3845 3.1167H70.2516L69.8025 6.71418H71.5514V6.7025Z" fill="#009CEB"/>
</g>
</g>
<defs>
<linearGradient id="paint0_linear_2366_19693" x1="1.79971" y1="1.79993" x2="16.1997" y2="16.1999" gradientUnits="userSpaceOnUse">
<stop stop-color="#2BD9FF"/>
<stop offset="1" stop-color="#0077ED"/>
</linearGradient>
<clipPath id="clip0_2366_19693">
<rect width="72" height="18" fill="white"/>
</clipPath>
<clipPath id="clip1_2366_19693">
<rect width="18" height="18" fill="white"/>
</clipPath>
<clipPath id="clip2_2366_19693">
<rect width="51" height="13" fill="white" transform="translate(21 3)"/>
</clipPath>
</defs>
</svg>
