<svg width="24" height="24" viewBox="0 0 24 24" fill="none" xmlns="http://www.w3.org/2000/svg">
<path d="M16.4958 6.8291H7.50669C7.40806 6.82986 7.31162 6.85832 7.22837 6.91124C7.14513 6.96415 7.07844 7.03939 7.03589 7.12838C6.99334 7.21737 6.97663 7.31652 6.9877 7.41454C6.99877 7.51255 7.03717 7.60548 7.09851 7.68273L10.5231 11.9764C10.5968 12.0699 10.6368 12.1855 10.6367 12.3046V16.6464C10.6366 16.7286 10.6559 16.8098 10.693 16.8832C10.7302 16.9566 10.7841 17.0203 10.8504 17.069C10.9167 17.1177 10.9936 17.1501 11.0748 17.1635C11.1559 17.177 11.2391 17.1711 11.3176 17.1464L13.0003 16.6118C13.1061 16.5775 13.1982 16.5105 13.2636 16.4205C13.3289 16.3305 13.364 16.2221 13.364 16.1109V12.3064C13.364 12.1872 13.4043 12.0715 13.4785 11.9782L16.9021 7.68273C16.9637 7.60571 17.0024 7.51289 17.0138 7.41491C17.0251 7.31693 17.0086 7.21774 16.9662 7.12869C16.9238 7.03963 16.8572 6.9643 16.774 6.91132C16.6908 6.85834 16.5944 6.82985 16.4958 6.8291Z" fill="#97A9BA"/>
</svg>
