<svg width="40" height="40" viewBox="0 0 40 40" fill="none" xmlns="http://www.w3.org/2000/svg">
<g clip-path="url(#clip0_6040_61954)">
<path d="M40 0H0V40H40V0Z" fill="#FAE100"/>
<path d="M19.9607 7.33545C12.0258 7.33545 5.59375 12.4192 5.59375 18.6939C5.59375 22.7766 8.31739 26.3548 12.4083 28.3568C12.1071 29.4772 11.3204 32.4206 11.1631 33.0499C10.9678 33.8312 11.4479 33.8204 11.7653 33.6115C12.0122 33.446 15.7016 30.9367 17.294 29.8543C18.1594 29.9818 19.0492 30.0496 19.9607 30.0496C27.8955 30.0496 34.3276 24.9658 34.3276 18.6939C34.3276 12.4219 27.8955 7.33545 19.9607 7.33545Z" fill="#371D1E"/>
<path d="M9.93553 16.6024H11.414C11.414 16.6024 11.4221 20.6634 11.414 21.6102C11.414 22.3019 12.9522 22.3101 12.9494 21.621L12.9549 16.6566C12.9549 16.6566 13.4513 16.6593 14.4252 16.6593C15.3448 16.6593 15.3448 15.2134 14.4252 15.2134C13.3889 15.2134 9.9274 15.1836 9.9274 15.1836C9.0593 15.1836 9.06202 16.6024 9.9274 16.6024" fill="#FAE100"/>
<mask id="mask0_6040_61954" style="mask-type:luminance" maskUnits="userSpaceOnUse" x="9" y="15" width="7" height="8">
<path d="M9.93553 16.6024H11.414C11.414 16.6024 11.4221 20.6634 11.414 21.6102C11.414 22.3019 12.9522 22.3101 12.9494 21.621L12.9549 16.6566C12.9549 16.6566 13.4513 16.6593 14.4252 16.6593C15.3448 16.6593 15.3448 15.2134 14.4252 15.2134C13.3889 15.2134 9.9274 15.1836 9.9274 15.1836C9.0593 15.1836 9.06202 16.6024 9.9274 16.6024" fill="white"/>
</mask>
<g mask="url(#mask0_6040_61954)">
<path d="M15.3492 15.1836H9.06641V22.3101H15.3492V15.1836Z" fill="#FAE100"/>
</g>
<path d="M17.0122 16.863L17.8342 19.4402H16.1197L17.0122 16.863ZM16.0899 15.6558C15.7264 16.4561 14.4107 20.2404 13.9766 21.2442C13.6619 21.9685 15.021 22.5599 15.3357 21.8356L15.6314 20.802H18.3361C18.3361 20.802 18.2438 20.8454 18.6019 21.7922C18.8922 22.5599 20.2974 22.0282 20.0071 21.2604C19.5921 20.1645 18.1543 16.2147 17.8912 15.6558C17.7718 15.3981 17.3378 15.2109 16.9173 15.2109C16.57 15.2109 16.2309 15.3384 16.0872 15.6558" fill="#FAE100"/>
<mask id="mask1_6040_61954" style="mask-type:luminance" maskUnits="userSpaceOnUse" x="13" y="15" width="8" height="8">
<path d="M17.0122 16.863L17.8342 19.4402H16.1197L17.0122 16.863ZM16.0899 15.6558C15.7264 16.4561 14.4107 20.2404 13.9766 21.2442C13.6619 21.9685 15.021 22.5599 15.3357 21.8356L15.6314 20.802H18.3361C18.3361 20.802 18.2438 20.8454 18.6019 21.7922C18.8922 22.5599 20.2974 22.0282 20.0071 21.2604C19.5921 20.1645 18.1543 16.2147 17.8912 15.6558C17.7718 15.3981 17.3378 15.2109 16.9173 15.2109C16.57 15.2109 16.2309 15.3384 16.0872 15.6558" fill="white"/>
</mask>
<g mask="url(#mask1_6040_61954)">
<path d="M20.301 15.2139H13.6602V22.5655H20.301V15.2139Z" fill="#FAE100"/>
</g>
<path d="M20.5274 15.8918C20.5274 17.1777 20.5355 21.3228 20.5355 21.3228C20.5355 21.3228 20.4161 22.1475 21.1242 22.1475C21.8322 22.1475 23.3975 22.1394 24.092 22.1394C24.7864 22.1394 24.7837 20.6609 24.0892 20.6609C23.3948 20.6609 22.1252 20.6528 22.1252 20.6528C22.1252 20.6528 22.1306 16.8196 22.1279 15.8864C22.1279 15.4361 21.7264 15.2109 21.3276 15.2109C20.9288 15.2109 20.5246 15.4388 20.5274 15.8891" fill="#FAE100"/>
<mask id="mask2_6040_61954" style="mask-type:luminance" maskUnits="userSpaceOnUse" x="20" y="15" width="5" height="8">
<path d="M20.5274 15.8918C20.5274 17.1777 20.5355 21.3228 20.5355 21.3228C20.5355 21.3228 20.4161 22.1475 21.1242 22.1475C21.8322 22.1475 23.3975 22.1394 24.092 22.1394C24.7864 22.1394 24.7837 20.6609 24.0892 20.6609C23.3948 20.6609 22.1252 20.6528 22.1252 20.6528C22.1252 20.6528 22.1306 16.8196 22.1279 15.8864C22.1279 15.4361 21.7264 15.2109 21.3276 15.2109C20.9288 15.2109 20.5246 15.4388 20.5274 15.8891" fill="white"/>
</mask>
<g mask="url(#mask2_6040_61954)">
<path d="M24.7883 15.2139H20.418V22.1477H24.7883V15.2139Z" fill="#FAE100"/>
</g>
<path d="M24.9721 15.6883C24.9884 16.2526 24.9531 21.3526 24.9531 21.7297C24.9531 22.3265 26.4723 22.3238 26.4723 21.7297C26.4723 21.0379 26.4723 19.7222 26.4723 19.7222L26.9172 19.3642L28.8677 22.0227C29.261 22.5435 30.5008 21.6022 30.1074 21.0841L28.0376 18.3577C28.0376 18.3577 29.4428 16.8386 29.9962 16.2879C30.319 15.9678 29.318 14.9586 28.9952 15.2814C28.6832 15.5907 26.4804 17.7962 26.4804 17.7962C26.4804 17.7962 26.4994 16.4126 26.4804 15.6476C26.4723 15.3574 26.1169 15.2163 25.7507 15.2163C25.36 15.2163 24.9613 15.3764 24.9694 15.6883" fill="#FAE100"/>
<mask id="mask3_6040_61954" style="mask-type:luminance" maskUnits="userSpaceOnUse" x="24" y="15" width="7" height="8">
<path d="M24.9721 15.6883C24.9884 16.2526 24.9531 21.3526 24.9531 21.7297C24.9531 22.3265 26.4723 22.3238 26.4723 21.7297C26.4723 21.0379 26.4723 19.7222 26.4723 19.7222L26.9172 19.3642L28.8677 22.0227C29.261 22.5435 30.5008 21.6022 30.1074 21.0841L28.0376 18.3577C28.0376 18.3577 29.4428 16.8386 29.9962 16.2879C30.319 15.9678 29.318 14.9586 28.9952 15.2814C28.6832 15.5907 26.4804 17.7962 26.4804 17.7962C26.4804 17.7962 26.4994 16.4126 26.4804 15.6476C26.4723 15.3574 26.1169 15.2163 25.7507 15.2163C25.36 15.2163 24.9613 15.3764 24.9694 15.6883" fill="white"/>
</mask>
<g mask="url(#mask3_6040_61954)">
<path d="M30.5008 14.9614H24.9531V22.5464H30.5008V14.9614Z" fill="#FAE100"/>
</g>
</g>
<defs>
<clipPath id="clip0_6040_61954">
<rect width="40" height="40" rx="7" fill="white"/>
</clipPath>
</defs>
</svg>
