<svg width="24" height="24" viewBox="0 0 24 24" fill="none" xmlns="http://www.w3.org/2000/svg">
<g clip-path="url(#clip0_6835_2846)">
<path d="M11.5277 2.51131C11.6834 2.06353 12.3166 2.06353 12.4723 2.51131L14.668 8.8281C14.7367 9.02564 14.921 9.15957 15.1301 9.16383L21.8162 9.30009C22.2902 9.30974 22.4859 9.91202 22.1081 10.1984L16.779 14.2387C16.6124 14.365 16.542 14.5817 16.6025 14.7819L18.5391 21.1829C18.6763 21.6366 18.164 22.0089 17.7749 21.7381L12.2856 17.9183C12.1139 17.7989 11.8861 17.7989 11.7144 17.9183L6.22514 21.7381C5.83602 22.0089 5.32369 21.6366 5.46097 21.1829L7.39751 14.7819C7.45807 14.5817 7.38766 14.365 7.22101 14.2387L1.8919 10.1984C1.51413 9.91202 1.70982 9.30974 2.18379 9.30009L8.86992 9.16383C9.07901 9.15957 9.26335 9.02564 9.33202 8.8281L11.5277 2.51131Z" fill="#D6D6D6"/>
</g>
<defs>
<clipPath id="clip0_6835_2846">
<rect width="24" height="24" fill="white"/>
</clipPath>
</defs>
</svg>
