<svg xmlns="http://www.w3.org/2000/svg" version="1.1" xmlns:xlink="http://www.w3.org/1999/xlink" xmlns:svgjs="http://svgjs.dev/svgjs" width="2000" height="656" viewBox="0 0 2000 656"><g transform="matrix(1,0,0,1,-1.2121212121212466,0.10882067478223689)"><svg viewBox="0 0 396 130" data-background-color="#ffffff" preserveAspectRatio="xMidYMid meet" height="656" width="2000" xmlns="http://www.w3.org/2000/svg" xmlns:xlink="http://www.w3.org/1999/xlink"><g id="tight-bounds" transform="matrix(1,0,0,1,0.2400000000000091,-0.021565072746483338)"><svg viewBox="0 0 395.52 130.04313014549294" height="130.04313014549294" width="395.52"><g><svg viewBox="0 0 682.511977194269 224.4033016690231" height="130.04313014549294" width="395.52"><g transform="matrix(1,0,0,1,286.991977194269,45.921432255276585)"><svg viewBox="0 0 395.52 132.56043715846994" height="132.56043715846994" width="395.52"><g id="textblocktransform"><svg viewBox="0 0 395.52 132.56043715846994" height="132.56043715846994" width="395.52" id="textblock"><g><svg viewBox="0 0 395.52 132.56043715846994" height="132.56043715846994" width="395.52"><g transform="matrix(1,0,0,1,0,0)"><svg width="395.52" viewBox="1.85 -35.5 139.04 46" height="132.56043715846994" data-palette-color="#007aff"><g class="wordmark-text-0" data-fill-palette-color="primary" id="text-0"><path d="M4.7-8.9Q4.85-7.2 5.98-5.65 7.1-4.1 9.08-3.13 11.05-2.15 13.6-2.15L13.6-2.15Q17.45-2.15 20.03-3.88 22.6-5.6 22.6-9.35L22.6-9.35Q22.6-11.55 21.35-13.03 20.1-14.5 18.25-15.38 16.4-16.25 13.2-17.4L13.2-17.4Q9.75-18.6 7.68-19.63 5.6-20.65 4.17-22.4 2.75-24.15 2.75-26.9L2.75-26.9Q2.75-29.1 4-31.08 5.25-33.05 7.78-34.27 10.3-35.5 14-35.5L14-35.5Q16.45-35.5 18.05-35.15 19.65-34.8 21.3-34L21.3-34 20.45-31.35Q17.6-32.8 14.1-32.8L14.1-32.8Q10.25-32.8 7.95-31.2 5.65-29.6 5.65-26.75L5.65-26.75Q5.65-24.95 6.8-23.73 7.95-22.5 9.63-21.75 11.3-21 14.3-19.95L14.3-19.95Q17.95-18.7 20.2-17.63 22.45-16.55 24.03-14.58 25.6-12.6 25.6-9.6L25.6-9.6Q25.6-5 22.68-2.23 19.75 0.55 13.65 0.55L13.65 0.55Q9.95 0.55 7.33-0.83 4.7-2.2 3.33-4.38 1.95-6.55 1.85-8.9L1.85-8.9 4.7-8.9ZM31.95 10.5L31.95-25.05 34.75-25.05 34.5-22.5Q35.85-23.95 37.67-24.7 39.5-25.45 41.3-25.45L41.3-25.45Q45.95-25.45 48.37-22.75 50.8-20.05 50.8-15.75L50.8-15.75 50.8-8.8Q50.8-4.25 48.25-1.83 45.7 0.6 41.5 0.6L41.5 0.6Q39.35 0.6 37.7 0 36.05-0.6 34.75-2.1L34.75-2.1 34.75 9.4 31.95 10.5ZM48-15.95Q48-19.6 46.07-21.25 44.15-22.9 41.5-22.9L41.5-22.9Q38.8-22.9 36.85-21.28 34.9-19.65 34.75-16.2L34.75-16.2 34.75-8.3Q34.75-5.05 36.6-3.5 38.45-1.95 41.5-1.95L41.5-1.95Q44.25-1.95 46.12-3.58 48-5.2 48-8.3L48-8.3 48-15.95ZM75-9.2Q75-5 72.7-2.25 70.4 0.5 65.75 0.5L65.75 0.5Q61.1 0.5 58.72-2.27 56.35-5.05 56.35-9.2L56.35-9.2 56.35-15.8Q56.35-20.55 58.77-23.08 61.2-25.6 65.75-25.6L65.75-25.6Q70.1-25.6 72.55-22.98 75-20.35 75-15.8L75-15.8 75-9.2ZM72.2-15.8Q72.2-19.55 70.47-21.3 68.75-23.05 65.75-23.05L65.75-23.05Q62.65-23.05 60.9-21.3 59.15-19.55 59.15-15.8L59.15-15.8 59.15-8.7Q59.15-5.7 60.92-3.85 62.7-2 65.75-2L65.75-2Q68.85-2 70.52-3.83 72.2-5.65 72.2-8.7L72.2-8.7 72.2-15.8ZM84.14 0.65Q81.34-0.15 80.09-1.9 78.84-3.65 78.84-6.6L78.84-6.6 78.84-35 81.64-35 81.64-25.05 87.64-25.05 86.44-22.4 81.64-22.4 81.64-6.6Q81.64-2.6 84.94-1.5L84.94-1.5 84.14 0.65ZM94.39-32.15Q93.74-32.15 93.22-32.68 92.69-33.2 92.69-33.85L92.69-33.85Q92.69-34.5 93.19-35 93.69-35.5 94.39-35.5L94.39-35.5Q95.09-35.5 95.57-35.02 96.04-34.55 96.04-33.85L96.04-33.85Q96.04-33.15 95.54-32.65 95.04-32.15 94.39-32.15L94.39-32.15ZM92.94 0L92.94-25.05 95.74-25.05 95.74 0 92.94 0ZM117.94-0.3Q114.84 0.5 111.94 0.5L111.94 0.5Q109.24 0.5 107.44-0.1L107.44-0.1Q104.49-1.1 103.16-3.18 101.84-5.25 101.84-9L101.84-9 101.84-15.4Q101.84-20.35 104.44-22.93 107.04-25.5 111.14-25.5L111.14-25.5Q114.39-25.5 117.84-23.9L117.84-23.9 117.04-21.85Q114.19-23 111.54-23L111.54-23Q108.44-23 106.54-21.23 104.64-19.45 104.64-15.7L104.64-15.7 104.64-8.45Q104.64-5 106.71-3.45 108.79-1.9 112.24-1.9L112.24-1.9Q114.49-1.9 117.34-2.55L117.34-2.55 117.94-0.3ZM137.54 0L127.94-15.85 125.34-13.6 125.34 0 122.54 0 122.54-35 125.34-35 125.34-16.75 135.34-26 137.34-24.05 129.94-17.6Q133.34-11.95 140.89 0L140.89 0 137.54 0Z" fill="#007aff" data-fill-palette-color="primary"></path></g></svg></g></svg></g></svg></g></svg></g><g><svg viewBox="0 0 224.4033016690231 224.4033016690231" height="224.4033016690231" width="224.4033016690231"><g><svg></svg></g><g id="icon-0"><svg viewBox="0 0 224.4033016690231 224.4033016690231" height="224.4033016690231" width="224.4033016690231"><g><path d="M0 112.202c0-61.967 50.234-112.202 112.202-112.202 61.967 0 112.202 50.234 112.201 112.202 0 61.967-50.234 112.202-112.201 112.201-61.967 0-112.202-50.234-112.202-112.201zM112.202 212.449c55.365 0 100.247-44.882 100.247-100.247 0-55.365-44.882-100.247-100.247-100.248-55.365 0-100.247 44.882-100.248 100.248 0 55.365 44.882 100.247 100.248 100.247z" data-fill-palette-color="accent" fill="#007aff" stroke="transparent"></path></g><g transform="matrix(1,0,0,1,64.15401281556174,49.9581197645084)"><svg viewBox="0 0 96.09527603789961 124.4870621400063" height="124.4870621400063" width="96.09527603789961"><g><svg xmlns="http://www.w3.org/2000/svg" xmlns:xlink="http://www.w3.org/1999/xlink" version="1.1" x="0" y="0" viewBox="27.5 21.5 44 57" style="enable-background:new 0 0 100 100;" xml:space="preserve" height="124.4870621400063" width="96.09527603789961" class="icon-cg-0" data-fill-palette-color="accent" id="cg-0"><g fill="#007aff" data-fill-palette-color="accent"><path d="M49.5 21.5c-12.1 0-22 9.8-22 21.9s22 35.1 22 35.1 22-23 22-35.1S61.6 21.5 49.5 21.5zM49.5 50.1c-4.9 0-8.9-4-8.9-8.9 0-4.9 4-8.9 8.9-8.9s8.9 4 8.9 8.9C58.4 46.2 54.4 50.1 49.5 50.1z" fill="#007aff" data-fill-palette-color="accent"></path></g></svg></g></svg></g></svg></g></svg></g></svg></g><defs></defs></svg><rect width="395.52" height="130.04313014549294" fill="none" stroke="none" visibility="hidden"></rect></g></svg></g></svg>