<svg width="24" height="24" viewBox="0 0 24 24" fill="none" xmlns="http://www.w3.org/2000/svg">
<path fill-rule="evenodd" clip-rule="evenodd" d="M5.5 8.85767C5.22386 8.85767 5 9.08152 5 9.35767V14.5C5 14.7761 5.22386 15 5.5 15H18.5C18.7761 15 19 14.7761 19 14.5V9.35767C19 9.08152 18.7761 8.85767 18.5 8.85767H17.5V7.85767H18.5C19.3284 7.85767 20 8.52924 20 9.35767V14.5C20 15.3284 19.3284 16 18.5 16H5.5C4.67157 16 4 15.3284 4 14.5V9.35767C4 8.52924 4.67157 7.85767 5.5 7.85767H12.5V8.85767H5.5Z" fill="#232323"/>
<path fill-rule="evenodd" clip-rule="evenodd" d="M5.64645 17.3536C5.84171 17.5488 6.15829 17.5488 6.35355 17.3536L7.85355 15.8536C8.04882 15.6583 8.04882 15.3417 7.85355 15.1464C7.65829 14.9512 7.34171 14.9512 7.14645 15.1464L5.64645 16.6464C5.45118 16.8417 5.45118 17.1583 5.64645 17.3536Z" fill="#232323"/>
<path fill-rule="evenodd" clip-rule="evenodd" d="M18.3536 17.3536C18.1583 17.5488 17.8417 17.5488 17.6464 17.3536L16.1464 15.8536C15.9512 15.6583 15.9512 15.3417 16.1464 15.1464C16.3417 14.9512 16.6583 14.9512 16.8536 15.1464L18.3536 16.6464C18.5488 16.8417 18.5488 17.1583 18.3536 17.3536Z" fill="#232323"/>
<path fill-rule="evenodd" clip-rule="evenodd" d="M15 6.5C13.6193 6.5 12.5 7.61929 12.5 9C12.5 10.3807 13.6193 11.5 15 11.5C16.3807 11.5 17.5 10.3807 17.5 9C17.5 7.61929 16.3807 6.5 15 6.5ZM11.5 9C11.5 7.067 13.067 5.5 15 5.5C16.933 5.5 18.5 7.067 18.5 9C18.5 10.933 16.933 12.5 15 12.5C13.067 12.5 11.5 10.933 11.5 9Z" fill="#232323"/>
<path fill-rule="evenodd" clip-rule="evenodd" d="M15 8.25C14.5858 8.25 14.25 8.58579 14.25 9C14.25 9.41421 14.5858 9.75 15 9.75C15.4142 9.75 15.75 9.41421 15.75 9C15.75 8.58579 15.4142 8.25 15 8.25ZM13.25 9C13.25 8.0335 14.0335 7.25 15 7.25C15.9665 7.25 16.75 8.0335 16.75 9C16.75 9.9665 15.9665 10.75 15 10.75C14.0335 10.75 13.25 9.9665 13.25 9Z" fill="#232323"/>
<path fill-rule="evenodd" clip-rule="evenodd" d="M6.5 11C6.5 10.7239 6.72386 10.5 7 10.5H9.5C9.77614 10.5 10 10.7239 10 11C10 11.2761 9.77614 11.5 9.5 11.5H7C6.72386 11.5 6.5 11.2761 6.5 11Z" fill="#232323"/>
<path fill-rule="evenodd" clip-rule="evenodd" d="M6.5 13C6.5 12.7239 6.72386 12.5 7 12.5H9.5C9.77614 12.5 10 12.7239 10 13C10 13.2761 9.77614 13.5 9.5 13.5H7C6.72386 13.5 6.5 13.2761 6.5 13Z" fill="#232323"/>
</svg>
