<svg width="21" height="21" viewBox="0 0 21 21" fill="none" xmlns="http://www.w3.org/2000/svg">
<path d="M19.25 10.5C19.25 15.3325 15.3325 19.25 10.5 19.25C5.66751 19.25 1.75 15.3325 1.75 10.5C1.75 5.66751 5.66751 1.75 10.5 1.75C15.3325 1.75 19.25 5.66751 19.25 10.5Z" fill="#FF5252"/>
<path d="M10.019 12.6897L9.29745 5.4745C9.23858 4.88582 9.70087 4.375 10.2925 4.375H10.7075C11.2991 4.375 11.7614 4.88582 11.7025 5.4745L10.981 12.6897C10.9563 12.9368 10.7484 13.125 10.5 13.125C10.2516 13.125 10.0437 12.9368 10.019 12.6897Z" fill="white"/>
<circle cx="10.5" cy="14.875" r="0.875" fill="white"/>
</svg>
