<svg width="139" height="103" viewBox="0 0 139 103" fill="none" xmlns="http://www.w3.org/2000/svg">
<path d="M69.4697 17.4697C69.7626 17.1768 70.2374 17.1768 70.5303 17.4697L75.3033 22.2426C75.5962 22.5355 75.5962 23.0104 75.3033 23.3033C75.0104 23.5962 74.5355 23.5962 74.2426 23.3033L70 19.0607L65.7574 23.3033C65.4645 23.5962 64.9896 23.5962 64.6967 23.3033C64.4038 23.0104 64.4038 22.5355 64.6967 22.2426L69.4697 17.4697ZM70.75 18L70.75 91L69.25 91L69.25 18L70.75 18Z" fill="#BDBDBD"/>
<path d="M69.5302 100.744L40.4766 83.5243L69.5302 70.3616L98.8386 83.5243L69.5302 100.744Z" stroke="#232323" stroke-width="2" stroke-linejoin="round" stroke-dasharray="2 2"/>
<path d="M69.5314 66.3827L40.1211 50.2485L69.5314 36L98.9416 50.2485L69.5314 66.3827Z" stroke="#232323" stroke-width="2" stroke-linejoin="round"/>
<path d="M69.5273 100.538V66.3834L98.9376 50.2491V83.4549L69.5273 100.538Z" stroke="#232323" stroke-width="2" stroke-linejoin="round"/>
<path d="M69.5273 100.538V66.3834L40.1171 50.2491V83.4549L69.5273 100.538Z" stroke="#232323" stroke-width="2" stroke-linejoin="round"/>
<path d="M116.169 85.3097C116.317 85.6933 116.121 86.1252 115.732 86.2745L109.383 88.7063C108.994 88.8555 108.558 88.6655 108.409 88.282C108.261 87.8984 108.457 87.4665 108.846 87.3172L114.489 85.1556L112.341 79.5996C112.193 79.216 112.389 78.7841 112.778 78.6349C113.168 78.4856 113.604 78.6756 113.752 79.0592L116.169 85.3097ZM115.154 86.2621L69.1418 66.2148L69.7597 64.8505L115.772 84.8978L115.154 86.2621Z" fill="#BDBDBD"/>
<path d="M23.5043 85.3078C23.3566 85.6916 23.5529 86.1232 23.9427 86.2718L30.2948 88.6941C30.6846 88.8427 31.1203 88.6521 31.268 88.2683C31.4157 87.8845 31.2194 87.4529 30.8296 87.3042L25.1833 85.1511L27.3226 79.5918C27.4703 79.208 27.274 78.7764 26.8842 78.6277C26.4944 78.4791 26.0587 78.6697 25.911 79.0535L23.5043 85.3078ZM24.5201 86.2586L70.3344 66.2146L69.7144 64.8512L23.9001 84.8952L24.5201 86.2586Z" fill="#BDBDBD"/>
<path d="M119.147 61.406V63.59C119.147 65.462 120.018 67.438 121.552 68.374L120.941 69.206C119.836 68.53 119.056 67.295 118.64 65.878C118.224 67.425 117.379 68.751 116.222 69.466L115.559 68.66C117.158 67.724 118.12 65.631 118.12 63.629V61.406H119.147ZM122.215 64.487V60.561H123.216V71.39H122.215V65.371H120.291V64.487H122.215ZM124.581 60.301H125.595V71.962H124.581V60.301ZM133.459 69.648H138.23V70.519H127.635V69.648H132.38V67.451H128.961V63.85H135.877V62.03H128.935V61.159H136.917V64.708H130.014V66.593H137.19V67.451H133.459V69.648Z" fill="#52A9FF"/>
<path d="M1.313 61.549H6.643C6.643 64.864 5.122 67.867 1.352 69.752L0.767 68.92C3.744 67.425 5.343 65.189 5.59 62.433H1.313V61.549ZM11.531 65.033V65.917H9.659V71.962H8.593V60.301H9.659V65.033H11.531ZM18.459 69.648H23.23V70.519H12.635V69.648H17.38V67.451H13.961V63.85H20.877V62.03H13.935V61.159H21.917V64.708H15.014V66.593H22.19V67.451H18.459V69.648Z" fill="#52A9FF"/>
<path d="M89.864 13.889H92.217V10.314H93.296V19.011H92.217V14.773H89.864V13.889ZM90.579 16.528L90.059 17.373C88.72 16.931 87.68 16.008 87.147 14.825C86.653 16.112 85.613 17.1 84.248 17.581L83.715 16.749C85.444 16.164 86.601 14.708 86.601 13.083V12.719H84.014V11.861H86.601V10.379H87.667V11.861H90.241V12.719H87.667V13.083C87.667 14.63 88.85 15.982 90.579 16.528ZM86.913 20.831H93.621V21.702H85.834V18.231H86.913V20.831ZM101.875 13.33H104.176V10.314H105.255V17.256H104.176V14.201H101.875V13.33ZM102.525 15.982L101.992 16.814C100.692 16.346 99.691 15.384 99.184 14.188C98.69 15.54 97.611 16.632 96.246 17.152L95.687 16.307C97.429 15.67 98.625 14.097 98.625 12.42V12.017H96.025V11.159H102.252V12.017H99.691V12.42C99.691 13.915 100.835 15.384 102.525 15.982ZM101.407 21.13C103.162 21.13 104.228 20.636 104.228 19.791C104.228 18.946 103.162 18.439 101.407 18.439C99.652 18.439 98.586 18.946 98.586 19.791C98.586 20.636 99.652 21.13 101.407 21.13ZM101.407 17.62C103.799 17.62 105.281 18.413 105.281 19.791C105.281 21.169 103.799 21.962 101.407 21.962C99.015 21.962 97.52 21.169 97.52 19.791C97.52 18.413 99.015 17.62 101.407 17.62ZM111.611 18.491V20.948H114.159V18.491H111.611ZM115.212 18.491V20.948H117.097V21.806H108.673V20.948H110.558V18.491H108.777V17.633H116.993V18.491H115.212ZM113.418 15.618H118.163V16.476H107.62V15.618H112.352V14.136H109.037V10.561H110.103V13.278H116.967V14.136H113.418V15.618ZM128.042 10.301H129.108V21.988H128.042V10.301ZM122.959 11.198C124.688 11.198 125.923 12.784 125.923 15.267C125.923 17.75 124.688 19.336 122.959 19.336C121.23 19.336 119.995 17.75 119.995 15.267C119.995 12.784 121.23 11.198 122.959 11.198ZM122.959 12.16C121.815 12.16 121.009 13.382 121.009 15.267C121.009 17.165 121.815 18.387 122.959 18.387C124.09 18.387 124.896 17.165 124.896 15.267C124.896 13.382 124.09 12.16 122.959 12.16Z" fill="#52A9FF"/>
</svg>
