<svg width="24" height="24" viewBox="0 0 24 24" fill="none" xmlns="http://www.w3.org/2000/svg">
<path d="M2.90924 6C2.90924 4.34315 4.25239 3 5.90924 3H17.9092C19.5661 3 20.9092 4.34315 20.9092 6V18C20.9092 19.6569 19.5661 21 17.9092 21H5.90924C4.25239 21 2.90924 19.6569 2.90924 18V6Z" fill="white"/>
<path fill-rule="evenodd" clip-rule="evenodd" d="M17.9092 4H5.90924C4.80467 4 3.90924 4.89543 3.90924 6V18C3.90924 19.1046 4.80467 20 5.90924 20H17.9092C19.0138 20 19.9092 19.1046 19.9092 18V6C19.9092 4.89543 19.0138 4 17.9092 4ZM5.90924 3C4.25239 3 2.90924 4.34315 2.90924 6V18C2.90924 19.6569 4.25239 21 5.90924 21H17.9092C19.5661 21 20.9092 19.6569 20.9092 18V6C20.9092 4.34315 19.5661 3 17.9092 3H5.90924Z" fill="#D4DBE2"/>
</svg>
