<svg width="25" height="25" viewBox="0 0 25 25" fill="none" xmlns="http://www.w3.org/2000/svg">
<path d="M6.7487 14.6718C8.18694 14.6718 9.35286 13.5059 9.35286 12.0677C9.35286 10.6294 8.18694 9.4635 6.7487 9.4635C5.31046 9.4635 4.14453 10.6294 4.14453 12.0677C4.14453 13.5059 5.31046 14.6718 6.7487 14.6718Z" stroke="#232323" stroke-linecap="round" stroke-linejoin="round"/>
<path d="M15.9988 20.4845C17.2443 21.2036 18.837 20.7769 19.5561 19.5313C20.2752 18.2858 19.8485 16.6931 18.6029 15.974C17.3574 15.2548 15.7647 15.6816 15.0456 16.9271C14.3265 18.1727 14.7532 19.7654 15.9988 20.4845Z" stroke="#232323" stroke-linecap="round" stroke-linejoin="round"/>
<path d="M9.01172 13.3977L14.6597 16.7189" stroke="#232323" stroke-linecap="round" stroke-linejoin="round"/>
<path d="M15.9988 3.65148C17.2443 2.93236 18.837 3.35912 19.5561 4.60467C20.2752 5.85022 19.8485 7.44291 18.6029 8.16203C17.3574 8.88115 15.7647 8.45439 15.0456 7.20884C14.3265 5.96328 14.7532 4.3706 15.9988 3.65148Z" stroke="#232323" stroke-linecap="round" stroke-linejoin="round"/>
<path d="M9.01172 10.7383L14.6597 7.41707" stroke="#232323" stroke-linecap="round" stroke-linejoin="round"/>
</svg>
