<svg width="19" height="19" viewBox="0 0 19 19" fill="none" xmlns="http://www.w3.org/2000/svg">
<path fill-rule="evenodd" clip-rule="evenodd" d="M9.50045 16.9654C9.50045 16.9654 14.9753 11.4598 14.9753 7.50909C14.9753 6.79019 14.8335 6.07822 14.5583 5.41404C14.2832 4.74986 13.8798 4.14639 13.3715 3.63805C12.8632 3.1297 12.2595 2.72647 11.5954 2.45136C10.9312 2.17624 10.2194 2.03467 9.50045 2.03467C8.04877 2.03499 6.65697 2.61188 5.63059 3.63849C4.6042 4.6651 4.02735 6.05741 4.02735 7.50909C4.01892 11.4827 9.50045 16.9654 9.50045 16.9654ZM11.7996 8.27684C11.9247 7.975 11.989 7.65155 11.989 7.32481C11.9891 6.99798 11.9252 6.67418 11.8002 6.3722C11.6752 6.07021 11.492 5.79595 11.2609 5.56485C11.0298 5.33374 10.7554 5.15039 10.4534 5.02539C10.1514 4.90039 9.82745 4.83615 9.50061 4.83631C9.17388 4.83631 8.85028 4.90061 8.54844 5.02568C8.24659 5.15075 7.97251 5.3342 7.74153 5.56529C7.51055 5.79638 7.32714 6.07058 7.20222 6.37249C7.07729 6.6744 7.01327 6.99808 7.01343 7.32481C7.01343 7.98447 7.27567 8.61701 7.74212 9.08346C8.20857 9.54991 8.84095 9.812 9.50061 9.812C9.82735 9.81216 10.1509 9.74799 10.4528 9.62306C10.7547 9.49814 11.0292 9.31488 11.2603 9.0839C11.4914 8.85292 11.6745 8.57869 11.7996 8.27684Z" fill="#0077ED"/>
</svg>
