<svg width="24" height="24" viewBox="0 0 24 24" fill="none" xmlns="http://www.w3.org/2000/svg">
<path d="M16.4948 6.8291H7.50572C7.40708 6.82986 7.31064 6.85832 7.2274 6.91124C7.14415 6.96415 7.07747 7.03939 7.03491 7.12838C6.99236 7.21737 6.97565 7.31652 6.98672 7.41454C6.9978 7.51255 7.0362 7.60548 7.09753 7.68273L10.5221 11.9764C10.5958 12.0699 10.6358 12.1855 10.6357 12.3046V16.6464C10.6356 16.7286 10.6549 16.8098 10.6921 16.8832C10.7292 16.9566 10.7831 17.0203 10.8494 17.069C10.9157 17.1177 10.9926 17.1501 11.0738 17.1635C11.1549 17.177 11.2381 17.1711 11.3166 17.1464L12.9994 16.6118C13.1051 16.5775 13.1973 16.5105 13.2626 16.4205C13.3279 16.3305 13.3631 16.2221 13.363 16.1109V12.3064C13.363 12.1872 13.4034 12.0715 13.4775 11.9782L16.9012 7.68273C16.9628 7.60571 17.0014 7.51289 17.0128 7.41491C17.0241 7.31693 17.0076 7.21774 16.9653 7.12869C16.9229 7.03963 16.8562 6.9643 16.773 6.91132C16.6899 6.85834 16.5934 6.82985 16.4948 6.8291Z" fill="#97A9BA"/>
</svg>
